<?xml version="1.0" encoding="UTF-8" standalone="no"?>
<!DOCTYPE svg PUBLIC "-//W3C//DTD SVG 1.1//EN"
 "http://www.w3.org/Graphics/SVG/1.1/DTD/svg11.dtd">
<!-- Generated by graphviz version 9.0.0 (20230911.1827)
 -->
<!-- Title: G Pages: 1 -->
<svg width="350pt" height="260pt"
 viewBox="0.00 0.00 350.00 260.00" xmlns="http://www.w3.org/2000/svg" xmlns:xlink="http://www.w3.org/1999/xlink">
<g id="graph0" class="graph" transform="scale(1 1) rotate(0) translate(4 256)">
<title>G</title>
<polygon fill="white" stroke="none" points="-4,4 -4,-256 346,-256 346,4 -4,4"/>
<!-- A -->
<g id="node1" class="node">
<title>A</title>
<polygon fill="none" stroke="black" points="162,-252 108,-252 108,-216 162,-216 162,-252"/>
<text text-anchor="middle" x="135" y="-231.28" font-family="Helvetica,sans-Serif" font-size="8.00">root</text>
</g>
<!-- B -->
<g id="node2" class="node">
<title>B</title>
<polygon fill="none" stroke="black" points="126,-180 72,-180 72,-144 126,-144 126,-180"/>
<text text-anchor="middle" x="99" y="-159.28" font-family="Helvetica,sans-Serif" font-size="8.00">internal</text>
</g>
<!-- A&#45;&gt;B -->
<g id="edge1" class="edge">
<title>A&#45;&gt;B</title>
<path fill="none" stroke="black" d="M126.1,-215.7C122.13,-207.98 117.37,-198.71 112.94,-190.11"/>
<polygon fill="black" stroke="black" points="116.17,-188.74 108.49,-181.45 109.95,-191.94 116.17,-188.74"/>
</g>
<!-- C -->
<g id="node3" class="node">
<title>C</title>
<polygon fill="none" stroke="black" points="198,-180 144,-180 144,-144 198,-144 198,-180"/>
<text text-anchor="middle" x="171" y="-159.28" font-family="Helvetica,sans-Serif" font-size="8.00">internal</text>
</g>
<!-- A&#45;&gt;C -->
<g id="edge2" class="edge">
<title>A&#45;&gt;C</title>
<path fill="none" stroke="black" d="M143.9,-215.7C147.87,-207.98 152.63,-198.71 157.06,-190.11"/>
<polygon fill="black" stroke="black" points="160.05,-191.94 161.51,-181.45 153.83,-188.74 160.05,-191.94"/>
</g>
<!-- F -->
<g id="node6" class="node">
<title>F</title>
<ellipse fill="none" stroke="black" cx="27" cy="-90" rx="27" ry="18"/>
<text text-anchor="middle" x="27" y="-87.28" font-family="Helvetica,sans-Serif" font-size="8.00">leaf</text>
</g>
<!-- B&#45;&gt;F -->
<g id="edge5" class="edge">
<title>B&#45;&gt;F</title>
<path fill="none" stroke="black" d="M81.2,-143.7C71.7,-134.46 59.91,-122.99 49.75,-113.12"/>
<polygon fill="black" stroke="black" points="52.38,-110.8 42.77,-106.33 47.5,-115.81 52.38,-110.8"/>
</g>
<!-- G -->
<g id="node7" class="node">
<title>G</title>
<ellipse fill="none" stroke="black" cx="99" cy="-90" rx="27" ry="18"/>
<text text-anchor="middle" x="99" y="-87.28" font-family="Helvetica,sans-Serif" font-size="8.00">leaf</text>
</g>
<!-- B&#45;&gt;G -->
<g id="edge6" class="edge">
<title>B&#45;&gt;G</title>
<path fill="none" stroke="black" d="M99,-143.7C99,-136.41 99,-127.73 99,-119.54"/>
<polygon fill="black" stroke="black" points="102.5,-119.62 99,-109.62 95.5,-119.62 102.5,-119.62"/>
</g>
<!-- D -->
<g id="node4" class="node">
<title>D</title>
<polygon fill="none" stroke="black" points="198,-108 144,-108 144,-72 198,-72 198,-108"/>
<text text-anchor="middle" x="171" y="-87.28" font-family="Helvetica,sans-Serif" font-size="8.00">internal</text>
</g>
<!-- C&#45;&gt;D -->
<g id="edge3" class="edge">
<title>C&#45;&gt;D</title>
<path fill="none" stroke="black" d="M171,-143.7C171,-136.41 171,-127.73 171,-119.54"/>
<polygon fill="black" stroke="black" points="174.5,-119.62 171,-109.62 167.5,-119.62 174.5,-119.62"/>
</g>
<!-- E -->
<g id="node5" class="node">
<title>E</title>
<polygon fill="none" stroke="black" points="270,-108 216,-108 216,-72 270,-72 270,-108"/>
<text text-anchor="middle" x="243" y="-87.28" font-family="Helvetica,sans-Serif" font-size="8.00">internal</text>
</g>
<!-- C&#45;&gt;E -->
<g id="edge4" class="edge">
<title>C&#45;&gt;E</title>
<path fill="none" stroke="black" d="M188.8,-143.7C197.28,-135.45 207.59,-125.43 216.93,-116.35"/>
<polygon fill="black" stroke="black" points="219.34,-118.88 224.07,-109.4 214.46,-113.86 219.34,-118.88"/>
</g>
<!-- H -->
<g id="node8" class="node">
<title>H</title>
<ellipse fill="none" stroke="black" cx="99" cy="-18" rx="27" ry="18"/>
<text text-anchor="middle" x="99" y="-15.28" font-family="Helvetica,sans-Serif" font-size="8.00">leaf</text>
</g>
<!-- D&#45;&gt;H -->
<g id="edge7" class="edge">
<title>D&#45;&gt;H</title>
<path fill="none" stroke="black" d="M153.2,-71.7C143.7,-62.46 131.91,-50.99 121.75,-41.12"/>
<polygon fill="black" stroke="black" points="124.38,-38.8 114.77,-34.33 119.5,-43.81 124.38,-38.8"/>
</g>
<!-- I -->
<g id="node9" class="node">
<title>I</title>
<ellipse fill="none" stroke="black" cx="171" cy="-18" rx="27" ry="18"/>
<text text-anchor="middle" x="171" y="-15.28" font-family="Helvetica,sans-Serif" font-size="8.00">leaf</text>
</g>
<!-- D&#45;&gt;I -->
<g id="edge8" class="edge">
<title>D&#45;&gt;I</title>
<path fill="none" stroke="black" d="M171,-71.7C171,-64.41 171,-55.73 171,-47.54"/>
<polygon fill="black" stroke="black" points="174.5,-47.62 171,-37.62 167.5,-47.62 174.5,-47.62"/>
</g>
<!-- J -->
<g id="node10" class="node">
<title>J</title>
<ellipse fill="none" stroke="black" cx="243" cy="-18" rx="27" ry="18"/>
<text text-anchor="middle" x="243" y="-15.28" font-family="Helvetica,sans-Serif" font-size="8.00">leaf</text>
</g>
<!-- E&#45;&gt;J -->
<g id="edge9" class="edge">
<title>E&#45;&gt;J</title>
<path fill="none" stroke="black" d="M243,-71.7C243,-64.41 243,-55.73 243,-47.54"/>
<polygon fill="black" stroke="black" points="246.5,-47.62 243,-37.62 239.5,-47.62 246.5,-47.62"/>
</g>
<!-- K -->
<g id="node11" class="node">
<title>K</title>
<ellipse fill="none" stroke="black" cx="315" cy="-18" rx="27" ry="18"/>
<text text-anchor="middle" x="315" y="-15.28" font-family="Helvetica,sans-Serif" font-size="8.00">leaf</text>
</g>
<!-- E&#45;&gt;K -->
<g id="edge10" class="edge">
<title>E&#45;&gt;K</title>
<path fill="none" stroke="black" d="M260.8,-71.7C270.3,-62.46 282.09,-50.99 292.25,-41.12"/>
<polygon fill="black" stroke="black" points="294.5,-43.81 299.23,-34.33 289.62,-38.8 294.5,-43.81"/>
</g>
</g>
</svg>
